<?xml version="1.0" encoding="iso-8859-1"?>
<!-- Generator: Adobe Illustrator 23.0.6, SVG Export Plug-In . SVG Version: 6.00 Build 0)  -->
<svg version="1.0" id="&#x5716;&#x5C64;_1" xmlns="http://www.w3.org/2000/svg" xmlns:xlink="http://www.w3.org/1999/xlink" x="0px"
	 y="0px" viewBox="0 0 65 65" style="enable-background:new 0 0 65 65;" xml:space="preserve">
<path style="fill:#C4A58D;" d="M39.305,44.554l11.54-16.273c0,0-3.305,0-7.344,0c-4.039,0-7.41,1.036-8.933,2.001
	c-2.327,1.246-3.858,3.557-4.077,6.325l-2.172-4.32c-0.443,0.227-0.917,0.402-1.414,0.515c-0.824,0.202-1.58,0.378-2.277,0.551
	l3.241,6.413c-0.376,2.522-2.55,4.457-5.176,4.457c-2.891,0-5.235-2.344-5.235-5.235c0-0.939,0.298-1.905,0.731-2.667
	c1.252-2.182,2.816-3.021,5.106-3.685c0.053-0.015,0.107-0.031,0.162-0.046c0.01-0.003,0.02-0.006,0.03-0.009
	c0.128-0.036,0.258-0.071,0.39-0.107c0.004-0.001,0.008-0.002,0.012-0.003c0.062-0.016,0.124-0.033,0.186-0.049
	c0.009-0.002,0.018-0.005,0.027-0.007c0.065-0.017,0.13-0.034,0.196-0.05c0.001,0,0.002-0.001,0.004-0.001
	c0.14-0.036,0.282-0.071,0.427-0.107c0.007-0.002,0.015-0.004,0.022-0.005c0.068-0.017,0.136-0.033,0.204-0.05
	c0.003-0.001,0.007-0.002,0.01-0.003c0.34-0.083,0.694-0.167,1.062-0.256c0.028-0.007,0.055-0.013,0.083-0.02
	c0.029-0.007,0.059-0.014,0.088-0.021c0.05-0.012,0.1-0.024,0.15-0.036c0.027-0.007,0.054-0.013,0.081-0.02
	c0.02-0.005,0.04-0.01,0.061-0.015c0,0,0,0,0,0c0.136-0.033,0.274-0.066,0.414-0.101c0.346-0.078,0.68-0.188,1-0.322l0.001,0.001
	c0.014-0.006,0.027-0.012,0.041-0.018c0.035-0.015,0.069-0.03,0.103-0.046c0.035-0.016,0.071-0.032,0.106-0.049
	c0.031-0.015,0.061-0.03,0.092-0.045c0.038-0.019,0.075-0.038,0.112-0.057c0.028-0.015,0.056-0.029,0.083-0.044
	c0.039-0.021,0.077-0.042,0.115-0.064c0.013-0.007,0.026-0.014,0.038-0.021l-0.001-0.001c1.814-1.051,3.035-3.012,3.035-5.26
	c0-3.356-2.72-6.076-6.076-6.076H14.155v15.024v1.429c0.104-0.263,0.226-0.516,0.365-0.759c0,0,1.007-1.763,3.274-3.152v-0.515
	V20.519h5.701c3.059,0,5.538,2.402,5.538,5.461c0,0,0.12,2.28-1.503,3.959l0,0c-0.075,0.078-0.154,0.154-0.237,0.229
	c-0.003,0.003-0.007,0.006-0.01,0.009c-0.079,0.071-0.162,0.141-0.249,0.209c-0.008,0.007-0.017,0.013-0.025,0.019
	c-0.082,0.064-0.168,0.126-0.257,0.187c-0.015,0.01-0.029,0.02-0.044,0.029c-0.026,0.018-0.053,0.035-0.08,0.052
	c-0.019,0.012-0.038,0.024-0.057,0.036c-0.041,0.025-0.083,0.051-0.125,0.075c-0.022,0.013-0.044,0.025-0.066,0.038
	c-0.025,0.014-0.05,0.028-0.075,0.042c-0.034,0.019-0.069,0.037-0.103,0.055c-0.029,0.015-0.058,0.03-0.088,0.044
	c-0.03,0.015-0.059,0.029-0.09,0.044c-0.023,0.011-0.046,0.022-0.07,0.033c-0.047,0.021-0.094,0.042-0.142,0.063
	c-0.019,0.008-0.039,0.016-0.058,0.024c-0.038,0.016-0.077,0.031-0.116,0.047c-0.021,0.008-0.043,0.017-0.065,0.025
	c-0.054,0.02-0.108,0.04-0.164,0.06c-0.014,0.005-0.029,0.01-0.044,0.015c-0.047,0.016-0.094,0.031-0.142,0.046
	c-0.02,0.006-0.041,0.013-0.061,0.019c-0.06,0.018-0.121,0.036-0.183,0.053c-0.011,0.003-0.022,0.006-0.032,0.008
	c-0.056,0.015-0.112,0.029-0.169,0.043c-0.019,0.005-0.039,0.009-0.058,0.014c-0.067,0.016-0.134,0.031-0.203,0.045
	c-0.007,0.001-0.014,0.003-0.021,0.004c-0.064,0.013-0.129,0.025-0.195,0.037c-0.019,0.003-0.038,0.007-0.058,0.01
	c-0.073,0.012-0.146,0.024-0.221,0.035c-0.003,0-0.007,0.001-0.01,0.001c-0.073,0.01-0.146,0.02-0.221,0.029
	c-0.02,0.002-0.04,0.005-0.06,0.007c-0.078,0.009-0.158,0.017-0.238,0.024c-0.103,0.009-0.204,0.019-0.305,0.03
	c-0.005,0.001-0.011,0.001-0.016,0.002c-5.58,0.627-7.919,4.723-7.919,4.723c-0.497,0.866-0.781,1.87-0.781,2.941
	c0,3.269,2.65,5.919,5.919,5.919c0,0,3.502,0.21,6.299-1.738l0,0c0.818-0.534,1.515-1.239,2.04-2.064l0.19,0.374l1.744,3.434h4.213
	l-1.867-3.688c0,0-0.475-2.754,0.002-5.501c0.153-1.219,0.652-2.373,1.368-3.297c2.499-3.622,8.348-3.837,9.196-3.837
	c0.848,0,3.947,0,3.947,0L35.883,45.272h14.962V42.09c-2.32,1.913-7.24,2.464-8.104,2.464S39.305,44.554,39.305,44.554z"/>
<path style="fill:#C4A58D;" d="M32.5,64.5c-17.645,0-32-14.355-32-32s14.355-32,32-32s32,14.355,32,32S50.145,64.5,32.5,64.5z
	 M32.5,1.658C15.494,1.658,1.658,15.494,1.658,32.5c0,17.006,13.836,30.842,30.842,30.842c17.006,0,30.842-13.835,30.842-30.842
	C63.342,15.494,49.506,1.658,32.5,1.658z"/>
</svg>
